<svg width="1543" height="1543" viewBox="0 0 1543 1543" fill="none" xmlns="http://www.w3.org/2000/svg">
<rect width="1543" height="1543" rx="345.632" fill="white"/>
<path d="M902.826 850.968H588.466V929.168H741.14C722.71 996.475 661.436 1046.49 588.466 1046.49C500.945 1046.49 430.216 976.017 430.216 888.511C430.216 800.993 492.733 730.523 588.922 730.523V648.728C448.338 648.728 348.406 756.286 348.406 888.966C348.406 1021.66 455.873 1129.22 588.589 1129.22C706.927 1129.22 805.024 1042.1 824.907 929.168H902.826V850.968Z" fill="#79C143"/>
<path d="M923.75 685.526L923.75 774.76H991.825V685.526H1081.06V617.45H991.825V529.136L923.75 529.136V617.45H834.516V685.526H923.75Z" fill="#79C143"/>
<path fill-rule="evenodd" clip-rule="evenodd" d="M1314.72 652.868C1338.18 652.868 1348.3 652.868 1392 652.868C1392 886.688 1207.38 1077.39 975.961 1087.15C903.969 1228.71 756.887 1325.8 587.052 1325.8C346.227 1325.8 151 1130.58 151 889.753C151 795.988 180.639 709.03 231.056 637.887L294.104 682.568C252.639 741.079 228.275 812.513 228.275 889.753C228.275 1087.9 388.905 1248.53 587.052 1248.53C733.955 1248.53 860.321 1160.23 915.813 1033.66C915.816 1033.65 915.819 1033.65 915.821 1033.64L926.231 1009.86L951.933 1010.27C952.974 1010.29 953.587 1010.28 954.518 1010.28C955.193 1010.27 956.035 1010.26 957.328 1010.26C1154.71 1010.26 1314.72 850.253 1314.72 652.868Z" fill="#79C143"/>
<path d="M957.327 295.471C831.634 295.471 721.034 360.359 657.299 458.571C685.503 463.189 713.034 470.422 738.918 479.737C790.046 416.32 869.119 373.666 957.328 373.666C1111.53 373.666 1236.53 498.669 1236.53 652.868C1236.53 807.067 1111.53 929.31 957.328 929.31V852.035C1068.85 852.035 1159.25 764.389 1159.25 652.868C1159.25 541.347 1068.85 450.941 957.328 450.941C885.957 450.941 821.423 490.316 785.304 547.476L767.473 575.693L736.965 562.151C692.281 542.316 639.17 530.056 587.512 530.056C544.107 530.056 502.582 537.736 464.166 551.78L437.635 479.202C479.567 463.873 524.476 454.8 571.198 453.08C588.707 419.307 610.521 388.117 635.916 360.24C647.569 347.447 693.765 306.456 712.459 293.686C782.179 246.06 866.488 218.196 957.327 218.196V295.471Z" fill="#79C143"/>
<path d="M344.188 528.216C318.786 528.216 298.191 548.808 298.191 574.208C298.191 599.618 318.786 620.21 344.188 620.21C369.591 620.21 390.185 599.618 390.185 574.208C390.185 548.808 369.591 528.216 344.188 528.216Z" fill="#79C143"/>
<path d="M1341.4 489.578C1316 489.578 1295.41 510.17 1295.41 535.571C1295.41 560.98 1316 581.572 1341.4 581.572C1366.81 581.572 1387.4 560.98 1387.4 535.571C1387.4 510.17 1366.81 489.578 1341.4 489.578Z" fill="#79C143"/>
</svg>
