<?xml version="1.0" encoding="UTF-8"?>
<svg width="170mm" height="138mm" version="1.1" viewBox="0 0 170 138" xmlns="http://www.w3.org/2000/svg">
 <g transform="translate(-20.448)" stroke-linecap="square" stroke-linejoin="bevel">
  <path d="m89.448 0c-37.918 0-69 31.082-69 69s31.082 69 69 69c37.918 0 69-31.082 69-69s-31.082-69-69-69zm0 32c20.624 0 37 16.376 37 37s-16.376 37-37 37c-20.624 0-37-16.376-37-37s16.376-37 37-37z" color="#000000" fill="#59befe" style="-inkscape-stroke:none;paint-order:markers fill stroke"/>
  <path d="m121.45 0c-37.918 0-69 31.082-69 69s31.082 69 69 69c37.918 0 69-31.082 69-69s-31.082-69-69-69zm0 32c20.624 0 37 16.376 37 37s-16.376 37-37 37c-20.624 0-37-16.376-37-37s16.376-37 37-37z" color="#000000" fill="#006d99" style="paint-order:markers fill stroke"/>
  <path d="m105.45 1.8903c-55.208 6.0426-60.398 34.325-53 67.106 0-20.624 16.376-37 37-37 5.752 0 11.172 1.2765 16 3.561 4.828-2.2845 18.965-1.3177 24.172 1.1251 12.358 5.7968 28.802 11.664 28.828 32.265-0.0227-32.394-22.732-59.786-53-67.057zm-53 67.106c0 1.8818 0.0798 3.7458 0.22996 5.5909 0.0373-0.14972 0.0722-0.30005 0.11834-0.44597-0.22796-1.6798-0.3483-3.3967-0.3483-5.1449z" color="#000000" fill="#59befe" style="paint-order:markers fill stroke"/>
 </g>
</svg>
